<?xml version="1.0" encoding="UTF-8" standalone="no" ?>
<!DOCTYPE svg PUBLIC "-//W3C//DTD SVG 1.1//EN" "http://www.w3.org/Graphics/SVG/1.1/DTD/svg11.dtd">
<svg xmlns="http://www.w3.org/2000/svg" xmlns:xlink="http://www.w3.org/1999/xlink" version="1.1" width="1080" height="1080" viewBox="0 0 1080 1080" xml:space="preserve">
<desc>Created with Fabric.js 5.2.4</desc>
<defs>
</defs>
<g transform="matrix(1 0 0 1 540 540)" id="19f9bbca-7026-4f4a-bca2-d0a515c7cdb0"  >
<rect style="stroke: none; stroke-width: 1; stroke-dasharray: none; stroke-linecap: butt; stroke-dashoffset: 0; stroke-linejoin: miter; stroke-miterlimit: 4; fill: rgb(255,255,255); fill-rule: nonzero; opacity: 1; visibility: hidden;" vector-effect="non-scaling-stroke"  x="-540" y="-540" rx="0" ry="0" width="1080" height="1080" />
</g>
<g transform="matrix(1 0 0 1 540 540)" id="497c0fdd-5fb4-4649-ae7b-8f695097b1af"  >
</g>
<g transform="matrix(6.49 0 0 6.49 561.28 516.24)"  >
<path style="stroke: none; stroke-width: 1; stroke-dasharray: none; stroke-linecap: butt; stroke-dashoffset: 0; stroke-linejoin: miter; stroke-miterlimit: 4; fill: rgb(255,255,255); fill-rule: nonzero; opacity: 1;" vector-effect="non-scaling-stroke"  transform=" translate(-50, -50)" d="M 63.93 13.43 L 63.93 25.808999999999997 L 77.739 25.808999999999997 z M 79.56700000000001 28.086 L 62.79400000000001 28.086 C 62.49322000000001 28.086 62.20416000000001 27.96491 61.98931000000001 27.750059999999998 C 61.77837000000001 27.539119999999997 61.65728000000001 27.250059999999998 61.65728000000001 26.949279999999998 L 61.65728000000001 12.031279999999999 L 7.911280000000005 12.031279999999999 L 7.911280000000005 100.08628 L 79.56728000000001 100.08628 z M 81.38340000000001 26.039099999999998 L 81.38340000000001 26.035193999999997 C 81.67246000000002 26.250033999999996 81.84043000000001 26.589883999999998 81.84043000000001 26.949253999999996 L 81.84043000000001 87.969254 L 92.09043000000001 87.969254 L 92.09043000000001 -0.08574600000000032 L 20.434430000000006 -0.08574600000000032 L 20.434430000000006 9.761954 L 62.88743000000001 9.761954 L 62.91086700000001 9.769765999999999 L 62.94211700000001 9.769765999999999 L 62.93821100000001 9.765859999999998 C 62.95383600000001 9.769765999999999 62.97336700000001 9.773672999999999 62.98508600000001 9.777578999999998 L 63.00071100000001 9.777578999999998 L 63.01243000000001 9.785390999999997 L 63.02414900000001 9.785390999999997 L 63.04368000000001 9.789296999999998 L 63.05149200000001 9.789296999999998 L 63.07493000000001 9.797109999999998 L 63.08274200000001 9.797109999999998 L 63.10618000000001 9.801015999999999 L 63.11789900000001 9.808829 L 63.13743000000001 9.808829 L 63.15696100000001 9.820547 L 63.17649200000001 9.82836 L 63.19993000000001 9.840079 L 63.21164900000001 9.840079 L 63.23118000000001 9.851797 L 63.23899200000001 9.851797 L 63.25461700000001 9.855704 L 63.26633600000001 9.863515999999999 L 63.28586700000001 9.875234999999998 L 63.29368000000001 9.875234999999998 L 63.30930500000001 9.886953999999998 L 63.31711700000001 9.886953999999998 L 63.33664900000001 9.898672999999997 L 63.34055500000001 9.898672999999997 L 63.34836700000001 9.906484999999996 L 63.36399200000001 9.906484999999996 L 63.38352300000001 9.926015999999997 L 63.39524200000001 9.933828999999998 L 63.40305500000001 9.933828999999998 L 63.41477300000001 9.937734999999998 L 63.42649200000001 9.949453999999998 L 63.43821100000001 9.957265999999997 L 63.44993000000001 9.961172999999997 L 63.44993000000001 9.968984999999996 L 63.46164900000001 9.976796999999996 L 63.47336700000001 9.976796999999996 L 63.48508600000001 9.988515999999995 L 63.49680500000001 9.996328999999996 L 63.50071100000001 10.008046999999996 L 63.51243000000001 10.015859999999996 L 63.51633600000001 10.015859999999996 L 63.52414900000001 10.027578999999996 L 63.53586700000001 10.031484999999996 L 63.53977300000001 10.039296999999996 L 63.54758600000001 10.039296999999996 L 63.55930500000001 10.047109999999996 L 63.57102300000001 10.058828999999996 L 63.57883600000001 10.070546999999996 C 63.59446100000001 10.090078999999996 63.61399200000001 10.101796999999996 63.62961700000001 10.117422999999995 z M 47.21940000000001 28.086 C 46.606120000000004 28.066467999999997 46.11390000000001 27.562559999999998 46.11390000000001 26.9454 C 46.11390000000001 26.33212 46.60609000000001 25.8282 47.21940000000001 25.808699999999998 L 56.559200000000004 25.808699999999998 C 57.17248000000001 25.828231 57.6608 26.33214 57.6608 26.9454 C 57.6608 27.56259 57.17252 28.066499999999998 56.559200000000004 28.086 z M 47.21940000000001 36.879 C 46.606120000000004 36.859469 46.11780000000001 36.359469999999995 46.11780000000001 35.7423 C 46.11780000000001 35.12902 46.60608000000001 34.6251 47.21940000000001 34.6056 L 70.6924 34.6056 C 71.30959 34.625131 71.79400000000001 35.12904 71.79400000000001 35.7423 C 71.79400000000001 36.35949 71.30962000000001 36.8595 70.6924 36.879 z M 47.21940000000001 45.672 C 46.59049000000001 45.672 46.08270000000001 45.16419 46.08270000000001 44.539199999999994 C 46.08270000000001 43.910289999999996 46.59051000000001 43.402499999999996 47.21940000000001 43.402499999999996 L 70.6924 43.402499999999996 C 71.32131000000001 43.402499999999996 71.82910000000001 43.910309999999996 71.82910000000001 44.539199999999994 C 71.82910000000001 45.164199999999994 71.32129 45.672 70.6924 45.672 z M 47.21940000000001 54.464999999999996 L 47.21940000000001 54.468906 C 46.59049000000001 54.468906 46.08270000000001 53.957186 46.08270000000001 53.332206 C 46.08270000000001 52.703296 46.59051000000001 52.195506 47.21940000000001 52.195506 L 70.6924 52.195506 C 71.32131000000001 52.195506 71.82910000000001 52.703316 71.82910000000001 53.332206 C 71.82910000000001 53.957206 71.32129 54.468906 70.6924 54.468906 z M 24.637400000000007 82.594 L 17.922600000000006 82.594 L 17.922600000000006 92.3557 L 24.637400000000007 92.3557 z M 33.617900000000006 74.32839999999999 L 26.910900000000005 74.32839999999999 L 26.910900000000005 92.35539999999999 L 33.62180000000001 92.35539999999999 z M 42.60230000000001 68.17609999999999 L 35.895300000000006 68.17219399999999 L 35.895300000000006 92.35619399999999 L 42.6101 92.35619399999999 L 42.6101 68.17219399999999 z M 51.582800000000006 80.00809999999998 L 44.875800000000005 80.00419399999998 L 44.875800000000005 92.35619399999999 L 51.58670000000001 92.35619399999999 z M 60.57110000000001 73.87139999999998 L 53.856300000000005 73.87139999999998 L 53.856300000000005 92.35539999999997 L 60.5711 92.35539999999997 z M 61.707800000000006 62.68739999999998 L 70.69220000000001 62.68739999999998 C 71.31720000000001 62.68739999999998 71.82500000000002 63.19520999999998 71.82890000000002 63.82409999999998 L 71.82890000000002 93.48809999999997 C 71.82499400000002 94.11700999999998 71.31718000000002 94.62479999999998 70.69220000000001 94.62479999999998 L 16.786200000000015 94.62479999999998 C 16.161200000000015 94.62479999999998 15.653400000000016 94.11698999999997 15.653400000000016 93.48809999999997 L 15.653400000000016 81.45709999999997 C 15.653400000000016 80.83209999999997 16.161210000000015 80.32429999999997 16.786200000000015 80.32039999999996 L 24.637800000000016 80.32039999999996 L 24.637800000000016 73.19149999999996 C 24.637800000000016 72.56258999999996 25.145610000000016 72.05479999999996 25.774500000000018 72.05479999999996 L 33.62220000000002 72.05479999999996 L 33.61829400000002 67.03529999999996 C 33.62220000000002 66.41029999999996 34.13001400000002 65.90249999999996 34.75499400000002 65.90249999999996 L 43.74329400000002 65.90249999999996 C 44.36829400000002 65.90249999999996 44.87609400000002 66.41030999999997 44.87609400000002 67.03529999999996 L 44.87609400000002 77.73429999999996 L 51.586994000000026 77.73429999999996 L 51.586994000000026 72.73819999999996 C 51.586994000000026 72.10928999999996 52.094804000000025 71.60149999999996 52.72369400000002 71.60149999999996 L 60.57529400000002 71.60149999999996 L 60.57529400000002 63.82419999999996 C 60.57529400000002 63.52341999999996 60.69248400000002 63.23044999999996 60.907324000000024 63.01950999999996 C 61.118264000000025 62.80466999999996 61.407324000000024 62.68747999999996 61.712014000000025 62.68747999999996 z M 69.55160000000001 64.96079999999998 L 62.84460000000001 64.95689299999998 L 62.84460000000001 92.35489299999998 L 69.55550000000001 92.35489299999998 z M 28.47760000000001 28.245799999999974 C 34.594800000000006 28.245799999999974 39.860600000000005 32.56609999999998 41.05560000000001 38.565799999999975 C 42.247000000000014 44.565799999999975 39.03610000000001 50.57379999999998 33.38370000000001 52.91379999999997 C 27.73140000000001 55.25359999999997 21.215700000000012 53.27707999999998 17.81770000000001 48.19109999999998 C 14.415400000000009 43.105199999999975 15.083300000000008 36.32409999999997 19.41150000000001 32.000099999999975 C 21.81380000000001 29.593899999999977 25.07950000000001 28.246199999999973 28.477900000000012 28.246199999999973 z M 33.36040000000001 31.710599999999975 C 33.27055600000001 31.663723999999974 33.18462000000001 31.616849999999975 33.09087000000001 31.577789999999975 L 33.07915100000001 31.566070999999976 L 32.99712000000001 31.530914999999975 L 32.97368200000001 31.519195999999976 L 32.89165100000001 31.476226999999977 L 32.86040100000001 31.46450899999998 L 32.79008800000001 31.429352999999978 L 32.75493200000001 31.41763399999998 L 32.68071400000001 31.382476999999977 L 32.65727600000001 31.374664999999975 C 32.52836600000001 31.316070999999976 32.39946600000001 31.269194999999975 32.26665600000001 31.210604999999976 L 32.25884300000001 31.210604999999976 L 32.16509300000001 31.175447999999975 L 32.15337500000001 31.175447999999975 C 31.83696500000001 31.058257999999974 31.520565000000012 30.956697999999975 31.19243500000001 30.870757999999974 L 31.18462300000001 30.870757999999974 L 31.18852900000001 30.870757999999974 C 30.67290900000001 30.734037999999973 30.14162900000001 30.636377999999972 29.61042900000001 30.577787999999973 L 29.61042900000001 39.94108799999997 L 38.97372900000001 39.94108799999997 L 38.97372900000001 39.92936999999997 L 38.96201100000001 39.82780999999997 L 38.96201100000001 39.81609099999997 C 38.93076100000001 39.58953099999997 38.89560400000001 39.35906099999997 38.856541000000014 39.13640099999997 L 38.856541000000014 39.14030699999997 C 38.848728000000015 39.10124399999997 38.840916000000014 39.06218199999997 38.833103000000015 39.02702699999997 L 38.817478000000015 38.92155699999997 L 38.809666000000014 38.91374399999997 C 38.774510000000014 38.73405399999997 38.727634000000016 38.55046399999997 38.68075600000002 38.370773999999976 L 38.68075600000002 38.36296099999998 L 38.68075600000002 38.366867999999975 C 38.67294300000002 38.33171099999998 38.66122400000002 38.29655499999998 38.64950600000002 38.265307999999976 L 38.64950600000002 38.245776999999975 L 38.61825600000002 38.152026999999975 L 38.61825600000002 38.140307999999976 C 38.57528700000002 37.99968799999998 38.53231800000002 37.859057999999976 38.48544600000002 37.72624799999998 L 38.48544600000002 37.718435999999976 L 38.41513300000002 37.507495999999975 L 38.41513300000002 37.503589999999974 L 38.37997700000002 37.409839999999974 L 38.37607100000002 37.38640299999997 L 38.34091500000002 37.300464999999974 L 38.34091500000002 37.29265299999997 L 38.18466500000002 36.905932999999976 L 38.17294600000002 36.874682999999976 L 38.13779000000002 36.80046399999998 L 38.12607100000002 36.76921399999998 L 38.09091500000002 36.69499499999998 L 38.07529000000002 36.65983899999998 L 38.04013300000002 36.58171399999998 L 38.02841500000002 36.558276999999975 L 37.993259000000016 36.484057999999976 L 37.97372700000002 36.452807999999976 C 37.930759000000016 36.366870999999975 37.89169600000002 36.27702799999997 37.84481700000002 36.19499799999998 L 37.83700500000002 36.179373999999974 L 37.79012900000002 36.093435999999976 L 37.77450500000002 36.062185999999976 L 37.73934800000002 35.999685999999976 L 37.71591100000002 35.952810999999976 L 37.68466100000002 35.894216999999976 L 37.66122300000002 35.85124799999998 L 37.62606700000002 35.792654999999975 L 37.60262900000002 35.749685999999976 L 37.56747300000002 35.683279999999975 C 37.55184800000002 35.652029999999975 37.52450500000002 35.624685999999976 37.50887900000002 35.593435999999976 L 37.50887900000002 35.589529999999975 C 37.48934800000002 35.558279999999975 37.46591100000002 35.530935999999976 37.45028600000002 35.495779999999975 L 37.41512900000002 35.44499799999998 L 37.38387900000002 35.394216999999976 L 37.35262900000002 35.35124799999998 L 37.31747300000002 35.292654999999975 L 37.28231700000002 35.245779999999975 L 37.25497300000002 35.198904999999975 L 37.21200500000002 35.140310999999976 L 37.18075500000002 35.097341999999976 L 37.15731700000002 35.050466999999976 L 37.11434800000002 34.991873999999974 L 37.07919200000002 34.94499799999998 L 37.08309800000002 34.948904999999975 C 37.06356700000002 34.917654999999975 37.04012900000002 34.886404999999975 37.01669200000002 34.859060999999976 L 36.98934800000002 34.816091999999976 L 36.94637900000002 34.75749799999998 L 36.91512900000002 34.722341999999976 L 36.87216100000002 34.66374799999998 L 36.84481700000002 34.624685999999976 L 36.80966100000002 34.573904999999975 L 36.77450500000002 34.530935999999976 L 36.73153600000002 34.480154999999975 L 36.69637900000002 34.437185999999976 L 36.64950500000002 34.378591999999976 L 36.61825500000002 34.343435999999976 C 36.59872300000002 34.316091999999976 36.57919200000002 34.292654999999975 36.55575500000002 34.269216999999976 L 36.55575500000002 34.25749799999998 L 36.54794200000002 34.249685999999976 C 36.52450500000002 34.218435999999976 36.49716100000002 34.191091999999976 36.47372300000002 34.16374799999998 L 36.45419200000002 34.144216999999976 L 36.39559800000002 34.073904999999975 L 36.36825500000002 34.046560999999976 L 36.31356700000002 33.980154999999975 L 36.23544200000002 33.902029999999975 L 36.20419200000002 33.866873999999974 L 36.15341100000002 33.808279999999975 L 36.07137900000002 33.72624799999998 L 36.02450500000002 33.683279999999975 C 36.00106700000002 33.652029999999975 35.96981700000002 33.63249799999998 35.94247300000002 33.60124799999998 C 35.91903600000002 33.573904999999975 35.89169200000002 33.546560999999976 35.86044200000002 33.519216999999976 L 35.77450500000002 33.433279999999975 L 35.74716100000002 33.409841999999976 L 35.68856700000002 33.35124799999998 L 35.65341100000002 33.31999799999998 L 35.59872300000002 33.269216999999976 L 35.56356700000002 33.241873999999974 L 35.51278600000002 33.191091999999976 L 35.47372300000002 33.155935999999976 L 35.40341100000002 33.097341999999976 L 35.38387900000002 33.077810999999976 C 35.35262900000002 33.054373999999974 35.32528600000002 33.027029999999975 35.29794200000002 33.003591999999976 L 35.29012900000002 32.999685999999976 L 35.25887900000002 32.97624799999998 L 35.20028600000002 32.929373999999974 L 35.15731700000002 32.894216999999976 L 35.11044200000002 32.85124799999998 L 35.05966100000002 32.812185999999976 L 35.01669200000002 32.780935999999976 L 34.96981700000002 32.737966999999976 L 34.91903600000002 32.702810999999976 L 34.83309800000002 32.63249799999998 L 34.78622300000002 32.597341999999976 L 34.74325500000002 32.566091999999976 L 34.69247300000002 32.530935999999976 C 34.66122300000002 32.50749799999998 34.63387900000002 32.487966999999976 34.60262900000002 32.468435999999976 L 34.55184800000002 32.425466999999976 L 34.50497300000002 32.398123999999974 L 34.45809800000002 32.362966999999976 L 34.40731700000002 32.327810999999976 L 34.36044200000002 32.296560999999976 L 34.25888200000002 32.22624799999998 L 34.21591400000002 32.198904999999975 L 34.15732000000002 32.16374799999998 L 34.11435100000002 32.13249799999998 L 34.05575800000002 32.097341999999976 C 34.02060100000002 32.077810999999976 33.99325800000002 32.054373999999974 33.96200800000002 32.03874799999998 C 33.93075800000002 32.023123999999974 33.90341400000002 31.99577999999998 33.87216400000002 31.98015499999998 L 33.86825800000002 31.98015499999998 L 33.80185100000002 31.944997999999977 L 33.76669500000002 31.921560999999976 L 33.69638200000002 31.894216999999976 L 33.65341400000002 31.870779999999975 L 33.59091400000002 31.835623999999974 L 33.55575800000002 31.812185999999976 L 33.45419800000002 31.761404999999975 L 33.37607300000002 31.718435999999976 z M 38.97760000000001 42.21059999999997 L 28.47760000000001 42.21059999999997 C 27.85260000000001 42.21059999999997 27.34480000000001 41.70278999999997 27.34480000000001 41.07389999999997 L 27.34480000000001 30.573899999999973 C 23.30180000000001 31.011399999999973 19.87210000000001 33.73009999999997 18.52450000000001 37.562199999999976 C 17.17290000000001 41.39419999999998 18.14169000000001 45.65989999999998 21.01280000000001 48.535199999999975 C 23.88780000000001 51.410199999999975 28.15340000000001 52.37899999999998 31.985800000000012 51.02739999999997 C 35.821700000000014 49.67969999999997 38.536600000000014 46.250099999999975 38.97800000000001 42.21099999999997 z" stroke-linecap="round" />
</g>
</svg>